<?xml version="1.0" encoding="UTF-8"?>
<svg version="1.1" xmlns="http://www.w3.org/2000/svg" width="541" height="174">
<path d="M0 0 C178.53 0 357.06 0 541 0 C541 57.42 541 114.84 541 174 C362.47 174 183.94 174 0 174 C0 116.58 0 59.16 0 0 Z " fill="#FEFEFE" transform="translate(0,0)"/>
<path d="M0 0 C6.27 0 12.54 0 19 0 C19 4.95 19 9.9 19 15 C14.38 15 9.76 15 5 15 C5 17.64 5 20.28 5 23 C5.72131104 23.26482178 6.44262207 23.52964355 7.18579102 23.80249023 C10.04542831 25.01933077 12.43691955 26.44805044 15.02734375 28.16015625 C15.97810791 28.78494873 16.92887207 29.40974121 17.90844727 30.0534668 C18.90803467 30.71644775 19.90762207 31.37942871 20.9375 32.0625 C23.00757871 33.42483448 25.07789066 34.78681461 27.1484375 36.1484375 C28.15100586 36.8094043 29.15357422 37.47037109 30.18652344 38.15136719 C33.79543515 40.52265142 37.42415544 42.8617131 41.0625 45.1875 C43.04415043 46.45445683 45.0235441 47.72495486 47 49 C48.10472656 49.62003906 49.20945313 50.24007812 50.34765625 50.87890625 C53 53 53 53 53.5859375 55.796875 C53.51632813 56.77140625 53.44671875 57.7459375 53.375 58.75 C53.29378906 60.22726563 53.29378906 60.22726563 53.2109375 61.734375 C53.14132813 62.48203125 53.07171875 63.2296875 53 64 C51.68 64.33 50.36 64.66 49 65 C49 67.64 49 70.28 49 73 C62.2 73 75.4 73 89 73 C89 74.32 89 75.64 89 77 C88.01 77 87.02 77 86 77 C86.00222061 77.76199203 86.00444122 78.52398407 86.00672913 79.30906677 C86.02673157 86.47551712 86.04197388 93.64195401 86.05181217 100.80842495 C86.05704008 104.49314498 86.06413605 108.17784203 86.07543945 111.86254883 C86.08627162 115.41570831 86.09227753 118.96884563 86.09487724 122.52202034 C86.0967309 123.88045666 86.10035038 125.23889171 86.10573006 126.59731865 C86.11294475 128.49382223 86.11340809 130.39034793 86.11352539 132.28686523 C86.115746 133.36830307 86.11796661 134.44974091 86.12025452 135.56394958 C86 138 86 138 85 139 C82.86336974 139.09911609 80.72340053 139.12632367 78.58447266 139.12698364 C77.56744483 139.12932363 77.56744483 139.12932363 76.52987099 139.13171089 C74.24124652 139.13572291 71.95268754 139.13253048 69.6640625 139.12939453 C68.03008993 139.13074848 66.39611767 139.13252838 64.762146 139.13470459 C60.31185921 139.13927965 55.8615955 139.13748907 51.41130829 139.1343255 C46.76460201 139.13180228 42.11789776 139.13413934 37.47119141 139.13571167 C29.66633752 139.13753348 21.86149308 139.13512677 14.05664062 139.13037109 C5.01972763 139.12492845 -4.0171628 139.1266911 -13.05407524 139.1321975 C-20.79842256 139.13672832 -28.54276307 139.13737933 -36.28711128 139.13475883 C-40.91884862 139.13319588 -45.55057534 139.13300277 -50.18231201 139.13629532 C-54.53573417 139.13917358 -58.8891271 139.13719918 -63.24254608 139.13140106 C-64.84500836 139.13007322 -66.44747307 139.13046798 -68.04993439 139.13266373 C-70.22814757 139.1353743 -72.40626562 139.13199528 -74.58447266 139.12698364 C-75.80639313 139.12660662 -77.0283136 139.12622959 -78.28726196 139.12584114 C-81 139 -81 139 -82 138 C-82.09391296 136.09756238 -82.11743658 134.19161541 -82.11352539 132.28686523 C-82.11341209 130.45507973 -82.11341209 130.45507973 -82.11329651 128.58628845 C-82.10818911 127.24372314 -82.10297311 125.90115825 -82.09765625 124.55859375 C-82.09579199 123.19238842 -82.09436813 121.82618243 -82.09336853 120.4599762 C-82.08954394 116.85798305 -82.07971417 113.25603 -82.06866455 109.65405273 C-82.05844916 105.98096255 -82.05387064 102.30786591 -82.04882812 98.63476562 C-82.03809184 91.42315877 -82.02101614 84.211585 -82 77 C-82.99 77 -83.98 77 -85 77 C-85 75.68 -85 74.36 -85 73 C-71.8 73 -58.6 73 -45 73 C-45 70.36 -45 67.72 -45 65 C-46.32 64.67 -47.64 64.34 -49 64 C-50.19363707 59.96659891 -50.36937997 57.00854864 -49 53 C-44.86147251 48.82505907 -39.34549187 46.1248508 -34.25683594 43.28027344 C-30.50755446 41.15335522 -26.91736476 38.78830438 -23.34057617 36.38500977 C-20.11169069 34.24651803 -16.88726813 32.43299462 -13.38671875 30.76953125 C-6.46534757 27.32684313 -6.46534757 27.32684313 -1 22 C1.26971019 14.88016666 0.62874134 7.34395816 0 0 Z " fill="#431A15" transform="translate(130,25)"/>
<path d="M0 0 C10.89 0 21.78 0 33 0 C33 13.53 33 27.06 33 41 C31.02 41.495 31.02 41.495 29 42 C29 44.31 29 46.62 29 49 C27.515 49.495 27.515 49.495 26 50 C25.67 52.64 25.34 55.28 25 58 C16.75 58 8.5 58 0 58 C0 38.86 0 19.72 0 0 Z " fill="#E28725" transform="translate(52,102)"/>
<path d="M0 0 C10.89 0 21.78 0 33 0 C33 18.81 33 37.62 33 57 C25.08 57 17.16 57 9 57 C8.01 53.535 8.01 53.535 7 50 C6.01 49.67 5.02 49.34 4 49 C4 46.69 4 44.38 4 42 C2.68 42 1.36 42 0 42 C0 28.14 0 14.28 0 0 Z " fill="#E48825" transform="translate(179,102)"/>
<path d="M0 0 C11.55 0 23.1 0 35 0 C35 2.64 35 5.28 35 8 C36.32 8 37.64 8 39 8 C39 20.54 39 33.08 39 46 C37.68 46 36.36 46 35 46 C35 48.64 35 51.28 35 54 C33.02 54 31.04 54 29 54 C29.00112793 53.08710205 29.00225586 52.1742041 29.00341797 51.23364258 C28.99346561 47.831452 28.95683687 44.43168636 28.90234375 41.0300293 C28.88422611 39.56072088 28.87660762 38.09124264 28.87988281 36.62182617 C28.88275278 34.50306948 28.84732139 32.38780262 28.8046875 30.26953125 C28.78897705 28.36071167 28.78897705 28.36071167 28.77294922 26.41333008 C27.70503918 21.69745824 25.93221535 20.6960997 22 18 C19.13391871 16.56695936 17.18699217 16.69355845 14 17 C10.3421782 19.03993908 8.33053826 20.50419262 6 24 C5.6303565 27.10208984 5.6303565 27.10208984 5.5859375 30.63671875 C5.52792969 32.58481445 5.52792969 32.58481445 5.46875 34.57226562 C5.43729483 35.94400573 5.40604749 37.31575061 5.375 38.6875 C5.33680803 40.07098785 5.29775558 41.45445223 5.2578125 42.83789062 C5.16339483 46.2251245 5.07781882 49.61235069 5 53 C3.35 53 1.7 53 0 53 C-0.33 50.69 -0.66 48.38 -1 46 C-1.99 45.67 -2.98 45.34 -4 45 C-4.76677886 32.64938342 -5.13305432 20.37405198 -5 8 C-3.68 7.67 -2.36 7.34 -1 7 C-0.67 4.69 -0.34 2.38 0 0 Z " fill="#F2D9BA" transform="translate(115,90)"/>
<path d="M0 0 C3.41249305 1.87439835 6.6119916 3.96583433 9.8203125 6.16796875 C11.16085824 7.07510619 12.50200819 7.98135136 13.84375 8.88671875 C14.49956055 9.33015625 15.15537109 9.77359375 15.83105469 10.23046875 C21.08070059 13.75039895 26.45600225 17.08195083 31.81640625 20.4296875 C33.33427734 21.38294922 33.33427734 21.38294922 34.8828125 22.35546875 C36.26533203 23.21785156 36.26533203 23.21785156 37.67578125 24.09765625 C38.34222656 24.55398437 39.00867188 25.0103125 39.6953125 25.48046875 C39.6953125 25.81046875 39.6953125 26.14046875 39.6953125 26.48046875 C12.6353125 26.48046875 -14.4246875 26.48046875 -42.3046875 26.48046875 C-36.68835468 21.98740249 -36.68835468 21.98740249 -33.84375 20.25390625 C-32.89967285 19.67298218 -32.89967285 19.67298218 -31.93652344 19.08032227 C-31.27426758 18.67612061 -30.61201172 18.27191895 -29.9296875 17.85546875 C-24.24138482 14.34292201 -18.61465341 10.7555956 -13.0546875 7.04296875 C-12.4354541 6.63030762 -11.8162207 6.21764648 -11.17822266 5.79248047 C-8.72707038 4.14865485 -6.3863709 2.55443761 -4.1953125 0.5703125 C-2.3046875 -0.51953125 -2.3046875 -0.51953125 0 0 Z " fill="#AD2700" transform="translate(133.3046875,50.51953125)"/>
<path d="M0 0 C0.66 0.00128906 1.32 0.00257812 2 0.00390625 C4.75093923 0.60030128 6.00056111 1.43600513 8 3.4375 C8.45410156 6.53198242 8.45410156 6.53198242 8.390625 10.29296875 C8.38496521 10.95460526 8.37930542 11.61624176 8.37347412 12.29792786 C8.35111247 14.40769332 8.30092371 16.51574952 8.25 18.625 C8.2299344 20.05661606 8.21168372 21.4882588 8.1953125 22.91992188 C8.15465111 26.42696666 8.07638132 29.9303246 8 33.4375 C2.72 33.4375 -2.56 33.4375 -8 33.4375 C-8.09198433 29.37996917 -8.17156595 25.32510335 -8.21972656 21.26708984 C-8.23980642 19.8877332 -8.26707666 18.50846131 -8.30175781 17.12939453 C-8.35042817 15.14393021 -8.37086418 13.15783746 -8.390625 11.171875 C-8.41157227 9.97788086 -8.43251953 8.78388672 -8.45410156 7.55371094 C-7.73905806 2.64682101 -5.05002788 -0.14795004 0 0 Z " fill="#228897" transform="translate(132,110.5625)"/>
<path d="M0 0 C30.69 0 61.38 0 93 0 C93 1.65 93 3.3 93 5 C62.31 5 31.62 5 0 5 C0 3.35 0 1.7 0 0 Z " fill="#E5CAAD" transform="translate(86,81)"/>
<path d="M0 0 C1.32 0.33 2.64 0.66 4 1 C4.33 9.25 4.66 17.5 5 26 C3.35 26.33 1.7 26.66 0 27 C-1.82089479 23.35821043 -1.05121113 18.99446852 -1 15 C-4.96 15 -8.92 15 -13 15 C-13 18.63 -13 22.26 -13 26 C-14.32 26 -15.64 26 -17 26 C-17.90483637 20.63510405 -18.12303662 15.49682543 -18.0625 10.0625 C-18.05798828 9.28326172 -18.05347656 8.50402344 -18.04882812 7.70117188 C-18.03716908 5.80074732 -18.01923877 3.90036294 -18 2 C-16.0625 1.4375 -16.0625 1.4375 -14 1 C-13 2 -13 2 -12.90234375 3.84765625 C-12.93489583 5.8984375 -12.96744792 7.94921875 -13 10 C-9.04 10 -5.08 10 -1 10 C-1.020625 8.535625 -1.04125 7.07125 -1.0625 5.5625 C-1.08392007 4.04167482 -1.07179964 2.51928038 -1 1 C-0.67 0.67 -0.34 0.34 0 0 Z " fill="#2F92A3" transform="translate(317,124)"/>
<path d="M0 0 C0.99 0 1.98 0 3 0 C3 17.82 3 35.64 3 54 C2.01 54 1.02 54 0 54 C-0.33 51.36 -0.66 48.72 -1 46 C-1.99 45.67 -2.98 45.34 -4 45 C-4 32.79 -4 20.58 -4 8 C-2.68 8 -1.36 8 0 8 C0 5.36 0 2.72 0 0 Z " fill="#E9CEB1" transform="translate(172,90)"/>
<path d="M0 0 C33.66 0 67.32 0 102 0 C102 0.99 102 1.98 102 3 C68.34 3 34.68 3 0 3 C0 2.01 0 1.02 0 0 Z " fill="#F9E0C0" transform="translate(81,156)"/>
<path d="M0 0 C0.33 1.65 0.66 3.3 1 5 C-2.21451269 6.60725635 -5.43612536 6.05748185 -9 6 C-8.67 7.65 -8.34 9.3 -8 11 C-5.36 11 -2.72 11 0 11 C0.33 12.32 0.66 13.64 1 15 C-1.40545638 16.20272819 -2.94996953 16.10071472 -5.625 16.0625 C-6.85089844 16.04896484 -6.85089844 16.04896484 -8.1015625 16.03515625 C-8.72804687 16.02355469 -9.35453125 16.01195312 -10 16 C-9.67 17.65 -9.34 19.3 -9 21 C-6.03 21 -3.06 21 0 21 C0 22.32 0 23.64 0 25 C-3.19745142 27.13163428 -4.28757916 27.31975564 -8 27.375 C-8.86625 27.40335938 -9.7325 27.43171875 -10.625 27.4609375 C-13 27 -13 27 -14.79296875 25.296875 C-17.9681657 19.25475265 -16.2297768 10.40189494 -14.7421875 3.97265625 C-14 2 -14 2 -11.9375 0.375 C-7.93904069 -0.13544161 -4.02382618 -0.1577971 0 0 Z " fill="#2D92A2" transform="translate(248,123)"/>
<path d="M0 0 C0.99 0 1.98 0 3 0 C3 8.25 3 16.5 3 25 C-5.50537634 27.43010753 -5.50537634 27.43010753 -10 26 C-12.16623148 24.1948071 -12.85535392 22.86966222 -13.31640625 20.09765625 C-13.52097565 16.5539864 -13.34556057 14.55289691 -11.4375 11.5 C-8.17971981 9.49521219 -5.75217167 9.71137141 -2 10 C-1.93941406 9.36191406 -1.87882812 8.72382813 -1.81640625 8.06640625 C-1.73261719 7.24011719 -1.64882813 6.41382813 -1.5625 5.5625 C-1.48128906 4.73878906 -1.40007812 3.91507812 -1.31640625 3.06640625 C-1 1 -1 1 0 0 Z " fill="#2D919F" transform="translate(265,122)"/>
<path d="M0 0 C2 2 2 2 2 5 C0.9275 4.979375 -0.145 4.95875 -1.25 4.9375 C-4.14790424 4.9857984 -6.28612141 5.13155885 -9 6 C-9 6.66 -9 7.32 -9 8 C-8.13375 8.226875 -7.2675 8.45375 -6.375 8.6875 C-2.33187203 10.25982754 0.06652673 11.78714833 3 15 C3.50843712 17.85466257 3.29773961 20.0722272 3 23 C-1.18717947 25.39267398 -4.1562272 26.63179645 -9 26 C-11.375 24.5 -11.375 24.5 -13 23 C-12.67 21.35 -12.34 19.7 -12 18 C-9.03 18.33 -6.06 18.66 -3 19 C-5.84678781 16.15321219 -8.65600318 14.20561492 -12 12 C-14 10 -14 10 -14.4375 7.125 C-14 4 -14 4 -12.0625 1.625 C-8.05225339 -0.50288596 -4.47036276 -0.75530687 0 0 Z " fill="#2D91A1" transform="translate(393,124)"/>
<path d="M0 0 C30.36 0 60.72 0 92 0 C92 0.99 92 1.98 92 3 C61.64 3 31.28 3 0 3 C0 2.01 0 1.02 0 0 Z " fill="#FBE2C2" transform="translate(86,148)"/>
<path d="M0 0 C0.99 0.66 1.98 1.32 3 2 C3.33375312 4.68205208 3.46392361 7.06920477 3.4375 9.75 C3.45748047 10.45382813 3.47746094 11.15765625 3.49804688 11.8828125 C3.49331096 16.97865749 2.44833849 20.03288493 -1 24 C-4.75 24.875 -4.75 24.875 -8 25 C-8.33 23.68 -8.66 22.36 -9 21 C-7.47005208 19.76302083 -5.94010417 18.52604167 -4.41015625 17.2890625 C-2.86733563 16.0333609 -2.86733563 16.0333609 -2 14 C-3.093125 14.061875 -4.18625 14.12375 -5.3125 14.1875 C-9 14 -9 14 -10.9375 12.875 C-12.55824231 10.01486651 -12.51742613 8.23391331 -12 5 C-8.03363482 0.30298861 -6.00225563 -1.61036127 0 0 Z " fill="#3294A4" transform="translate(344,132)"/>
<path d="M0 0 C0.66 0 1.32 0 2 0 C2.33 2.31 2.66 4.62 3 7 C3.99 7.33 4.98 7.66 6 8 C6 20.21 6 32.42 6 45 C4.515 45.495 4.515 45.495 3 46 C2.67 48.31 2.34 50.62 2 53 C1.34 53 0.68 53 0 53 C0 35.51 0 18.02 0 0 Z " fill="#F8DEBF" transform="translate(90,90)"/>
<path d="M0 0 C1.98 0 3.96 0 6 0 C6.33 2.64 6.66 5.28 7 8 C9.31 8.33 11.62 8.66 14 9 C14 10.98 14 12.96 14 15 C11.69 15.33 9.38 15.66 7 16 C6.67 18.31 6.34 20.62 6 23 C4.02 23 2.04 23 0 23 C-0.33 20.69 -0.66 18.38 -1 16 C-3.64 15.67 -6.28 15.34 -9 15 C-9 13.02 -9 11.04 -9 9 C-4.545 8.505 -4.545 8.505 0 8 C0 5.36 0 2.72 0 0 Z " fill="#ED9532" transform="translate(80,25)"/>
<path d="M0 0 C1.98 0 3.96 0 6 0 C6.97815251 12.3491755 7.11739981 24.61702895 7 37 C4.69 37 2.38 37 0 37 C0 24.79 0 12.58 0 0 Z " fill="#EAD0B3" transform="translate(100,98)"/>
<path d="M0 0 C1.98 0.495 1.98 0.495 4 1 C4.66 3.97 5.32 6.94 6 10 C7.093125 10.061875 8.18625 10.12375 9.3125 10.1875 C13 11 13 11 14.9375 13.1875 C16.14154582 16.37468011 16.3755195 18.62032453 16 22 C15.34 22.66 14.68 23.32 14 24 C13.01 24 12.02 24 11 24 C10.34 21.36 9.68 18.72 9 16 C8.01 18.97 7.02 21.94 6 25 C4.35 25 2.7 25 1 25 C-0.8474813 19.45755609 -1.19264164 14.35713179 -1.1875 8.5625 C-1.18814453 7.83998047 -1.18878906 7.11746094 -1.18945312 6.37304688 C-1.13473189 1.13473189 -1.13473189 1.13473189 0 0 Z " fill="#3193A3" transform="translate(417,122)"/>
<path d="M0 0 C2.475 0.495 2.475 0.495 5 1 C5.33 4.3 5.66 7.6 6 11 C7.98 10.67 9.96 10.34 12 10 C14.21368294 12.21368294 15.86552921 13.93016625 16.265625 17.11328125 C16.25166986 19.07746787 16.13286356 21.0402625 16 23 C14.68 23.33 13.36 23.66 12 24 C11.01 21.69 10.02 19.38 9 17 C8.01 19.64 7.02 22.28 6 25 C4.35 24.67 2.7 24.34 1 24 C0.13036913 21.00293305 -0.11763099 18.35043474 -0.09765625 15.234375 C-0.09443359 14.34492188 -0.09121094 13.45546875 -0.08789062 12.5390625 C-0.07532227 11.15847656 -0.07532227 11.15847656 -0.0625 9.75 C-0.05798828 8.81414062 -0.05347656 7.87828125 -0.04882812 6.9140625 C-0.03706918 4.60930959 -0.02063426 2.30468773 0 0 Z " fill="#2E92A4" transform="translate(350,122)"/>
<path d="M0 0 C1.98 0 3.96 0 6 0 C6 12.21 6 24.42 6 37 C4.02 37 2.04 37 0 37 C0 24.79 0 12.58 0 0 Z " fill="#F2D8BA" transform="translate(158,98)"/>
<path d="M0 0 C1.98828125 0.58984375 1.98828125 0.58984375 3.98828125 2.58984375 C4.43556884 6.5408841 4.30770372 8.93711087 2.55078125 12.52734375 C-0.73315588 15.17051266 -2.79010129 15.07849046 -6.890625 14.9609375 C-9.01171875 14.58984375 -9.01171875 14.58984375 -12.01171875 12.58984375 C-12.64718308 7.74442826 -12.70130514 5.67983514 -10.07421875 1.52734375 C-6.27925484 -0.87355179 -4.31225605 -0.64502654 0 0 Z " fill="#2D92A2" transform="translate(465.01171875,133.41015625)"/>
<path d="M0 0 C1.98828125 0.58984375 1.98828125 0.58984375 3.98828125 2.58984375 C4.43556884 6.5408841 4.30770372 8.93711087 2.55078125 12.52734375 C-0.73315588 15.17051266 -2.79010129 15.07849046 -6.890625 14.9609375 C-9.01171875 14.58984375 -9.01171875 14.58984375 -12.01171875 12.58984375 C-12.64718308 7.74442826 -12.70130514 5.67983514 -10.07421875 1.52734375 C-6.27925484 -0.87355179 -4.31225605 -0.64502654 0 0 Z " fill="#2D92A2" transform="translate(447.01171875,133.41015625)"/>
<path d="M0 0 C1.32 0.33 2.64 0.66 4 1 C4.33 5.95 4.66 10.9 5 16 C3.02 16 1.04 16 -1 16 C-3.33764285 16.30163134 -5.67258011 16.62761282 -8 17 C-10.80045623 13.85408067 -11.35261589 11.932936 -11.1875 7.75 C-11.16042969 6.85796875 -11.13335937 5.9659375 -11.10546875 5.046875 C-11.07066406 4.37140625 -11.03585937 3.6959375 -11 3 C-9.68 2.34 -8.36 1.68 -7 1 C-6 2 -6 2 -5.90234375 4.06640625 C-5.91394531 4.89011719 -5.92554688 5.71382812 -5.9375 6.5625 C-5.94652344 7.38878906 -5.95554687 8.21507812 -5.96484375 9.06640625 C-5.98224609 10.02353516 -5.98224609 10.02353516 -6 11 C-3.81263898 10.18262144 -3.81263898 10.18262144 -3.18359375 7.96875 C-2.93738281 7.1540625 -2.69117188 6.339375 -2.4375 5.5 C-1.09111617 1.09111617 -1.09111617 1.09111617 0 0 Z " fill="#3093A4" transform="translate(282,131)"/>
<path d="M0 0 C1.65 0 3.3 0 5 0 C5.33 2.31 5.66 4.62 6 7 C8.97 7.495 8.97 7.495 12 8 C12 9.65 12 11.3 12 13 C9.69 13 7.38 13 5 13 C5 15.31 5 17.62 5 20 C3.35 20 1.7 20 0 20 C0 17.69 0 15.38 0 13 C-2.31 13 -4.62 13 -7 13 C-7 11.35 -7 9.7 -7 8 C-5.02 7.67 -3.04 7.34 -1 7 C-0.67 4.69 -0.34 2.38 0 0 Z " fill="#EE9635" transform="translate(171,12)"/>
<path d="M0 0 C4.91511194 1.34048507 4.91511194 1.34048507 6.4375 3.9375 C6.9375 6.875 6.9375 6.875 6.4375 9.9375 C4.3125 12.375 4.3125 12.375 1.4375 13.9375 C-2.12340901 13.9375 -3.81947245 13.63099238 -6.4375 11.1875 C-7.81113504 8.44022993 -8.09312116 6.96962094 -7.5625 3.9375 C-5.24143877 0.40948693 -4.27159402 -0.07494025 0 0 Z " fill="#3D0B04" transform="translate(132.5625,59.0625)"/>
<path d="M0 0 C0.66 0.66 1.32 1.32 2 2 C1.625 4.125 1.625 4.125 1 6 C0.38125 5.79375 -0.2375 5.5875 -0.875 5.375 C-1.57625 5.25125 -2.2775 5.1275 -3 5 C-5.35953094 7.35953094 -5.49141413 8.77895617 -6 12 C-3.03 12 -0.06 12 3 12 C3 12.99 3 13.98 3 15 C-0.78183906 17.52122604 -3.55855205 17.73098831 -8 17 C-10.89480534 14.73843333 -10.97418644 13.20282084 -11.4375 9.5625 C-10.93235165 5.44914913 -9.89538484 3.89538484 -7 1 C-4.48718205 -0.25640898 -2.78302919 -0.20872719 0 0 Z " fill="#2E92A2" transform="translate(410,131)"/>
<path d="M0 0 C1.37478516 0.01740234 1.37478516 0.01740234 2.77734375 0.03515625 C3.69644531 0.04417969 4.61554688 0.05320312 5.5625 0.0625 C6.27277344 0.07410156 6.98304688 0.08570312 7.71484375 0.09765625 C7.74170928 2.07675023 7.7611775 4.05594596 7.77734375 6.03515625 C7.78894531 7.13730469 7.80054688 8.23945312 7.8125 9.375 C7.71484375 12.09765625 7.71484375 12.09765625 6.71484375 13.09765625 C5.21746251 13.19556195 3.71541483 13.22740489 2.21484375 13.22265625 C1.40015625 13.22523437 0.58546875 13.2278125 -0.25390625 13.23046875 C-2.28515625 13.09765625 -2.28515625 13.09765625 -3.28515625 12.09765625 C-3.38366796 10.26649742 -3.41488254 8.43145692 -3.41015625 6.59765625 C-3.41273438 5.59734375 -3.4153125 4.59703125 -3.41796875 3.56640625 C-3.24540081 0.3586728 -3.20162167 0.13682144 0 0 Z " fill="#3F1E14" transform="translate(200.28515625,108.90234375)"/>
<path d="M0 0 C7.71484375 -0.09765625 7.71484375 -0.09765625 10 0 C11 1 11 1 11.09765625 3.50390625 C11.08605469 4.51324219 11.07445312 5.52257812 11.0625 6.5625 C11.05347656 7.57441406 11.04445312 8.58632812 11.03515625 9.62890625 C11.02355469 10.41136719 11.01195312 11.19382812 11 12 C7.57067929 13.71466036 3.78283935 13.05404056 0 13 C0 8.71 0 4.42 0 0 Z " fill="#401E14" transform="translate(183,109)"/>
<path d="M0 0 C1.64574566 -0.02688151 3.29161413 -0.04634123 4.9375 -0.0625 C5.85402344 -0.07410156 6.77054687 -0.08570312 7.71484375 -0.09765625 C10 0 10 0 11 1 C11.09851171 2.83115883 11.12972629 4.66619933 11.125 6.5 C11.12757812 7.5003125 11.13015625 8.500625 11.1328125 9.53125 C11 12 11 12 10 13 C8.50261876 13.0979057 7.00057108 13.12974864 5.5 13.125 C4.6853125 13.12757812 3.870625 13.13015625 3.03125 13.1328125 C1 13 1 13 0 12 C-0.07244053 9.98035801 -0.08377188 7.95832876 -0.0625 5.9375 C-0.05347656 4.83277344 -0.04445313 3.72804688 -0.03515625 2.58984375 C-0.02355469 1.73519531 -0.01195313 0.88054687 0 0 Z " fill="#3F1E14" transform="translate(71,109)"/>
<path d="M0 0 C0.8146875 0.00257812 1.629375 0.00515625 2.46875 0.0078125 C3.2834375 0.00523438 4.098125 0.00265625 4.9375 0 C6.96875 0.1328125 6.96875 0.1328125 7.96875 1.1328125 C8.06726171 2.96397133 8.09847629 4.79901183 8.09375 6.6328125 C8.09632812 7.633125 8.09890625 8.6334375 8.1015625 9.6640625 C7.96875 12.1328125 7.96875 12.1328125 6.96875 13.1328125 C5.47136876 13.2307182 3.96932108 13.26256114 2.46875 13.2578125 C1.6540625 13.26039062 0.839375 13.26296875 0 13.265625 C-2.03125 13.1328125 -2.03125 13.1328125 -3.03125 12.1328125 C-3.12976171 10.30165367 -3.16097629 8.46661317 -3.15625 6.6328125 C-3.15882812 5.6325 -3.16140625 4.6321875 -3.1640625 3.6015625 C-2.98079257 0.19489798 -2.98079257 0.19489798 0 0 Z " fill="#3D1C14" transform="translate(59.03125,108.8671875)"/>
<path d="M0 0 C0.99 0.33 1.98 0.66 3 1 C4.35201312 5.05603936 4.18417967 8.81579445 4.1875 13.0625 C4.19974609 13.89072266 4.21199219 14.71894531 4.22460938 15.57226562 C4.22654297 16.36439453 4.22847656 17.15652344 4.23046875 17.97265625 C4.23457764 18.69718994 4.23868652 19.42172363 4.24291992 20.16821289 C4 22 4 22 2 24 C0.68 23.67 -0.64 23.34 -2 23 C-2 15.74 -2 8.48 -2 1 C-1.34 0.67 -0.68 0.34 0 0 Z " fill="#3695A7" transform="translate(473,124)"/>
<path d="M0 0 C3.63 0 7.26 0 11 0 C11 3.96 11 7.92 11 12 C7.37 12 3.74 12 0 12 C0 8.04 0 4.08 0 0 Z " fill="#391A14" transform="translate(56,126)"/>
<path d="M0 0 C3.63 0 7.26 0 11 0 C11 3.96 11 7.92 11 12 C3.28515625 12.09765625 3.28515625 12.09765625 1 12 C0 11 0 11 -0.09765625 8.49609375 C-0.06510417 5.6640625 -0.03255208 2.83203125 0 0 Z " fill="#3C1007" transform="translate(197,126)"/>
<path d="M0 0 C3.63 0 7.26 0 11 0 C11.09765625 8.49609375 11.09765625 8.49609375 11 11 C10 12 10 12 7.71484375 12.09765625 C5.14322917 12.06510417 2.57161458 12.03255208 0 12 C0 8.04 0 4.08 0 0 Z " fill="#3B0F07" transform="translate(71,126)"/>
<path d="M0 0 C4.29 0 8.58 0 13 0 C13 3.3 13 6.6 13 10 C8.71 10 4.42 10 0 10 C0 6.7 0 3.4 0 0 Z " fill="#A02300" transform="translate(133,27)"/>
<path d="M0 0 C3.3 0 6.6 0 10 0 C10 3.96 10 7.92 10 12 C6.7 12 3.4 12 0 12 C0 8.04 0 4.08 0 0 Z " fill="#311614" transform="translate(183,126)"/>
<path d="M0 0 C1.32 0 2.64 0 4 0 C4 1.32 4 2.64 4 4 C5.65 4 7.3 4 9 4 C9 5.32 9 6.64 9 8 C7.35 8 5.7 8 4 8 C4 9.65 4 11.3 4 13 C2.68 13 1.36 13 0 13 C0 11.35 0 9.7 0 8 C-1.32 8 -2.64 8 -4 8 C-4 6.68 -4 5.36 -4 4 C-2.68 4 -1.36 4 0 4 C0 2.68 0 1.36 0 0 Z " fill="#EF9F47" transform="translate(195,37)"/>
<path d="M0 0 C1.32 0.33 2.64 0.66 4 1 C4.05410687 2.77049689 4.09284119 4.54146849 4.125 6.3125 C4.14820313 7.29863281 4.17140625 8.28476563 4.1953125 9.30078125 C4 12 4 12 2 15 C0.68 14.67 -0.64 14.34 -2 14 C-1.03644647 4.58997722 -1.03644647 4.58997722 0 0 Z " fill="#3A98AA" transform="translate(326,133)"/>
<path d="M0 0 C4.62 0 9.24 0 14 0 C14 1.65 14 3.3 14 5 C9.38 5 4.76 5 0 5 C0 3.35 0 1.7 0 0 Z " fill="#CFB299" transform="translate(154,139)"/>
<path d="M0 0 C4.95 0 9.9 0 15 0 C15 1.32 15 2.64 15 4 C10.05 4 5.1 4 0 4 C0 2.68 0 1.36 0 0 Z " fill="#E3C8AC" transform="translate(96,90)"/>
<path d="M0 0 C4.62 0 9.24 0 14 0 C14 1.32 14 2.64 14 4 C9.38 4 4.76 4 0 4 C0 2.68 0 1.36 0 0 Z " fill="#E9CFB2" transform="translate(154,90)"/>
<path d="M0 0 C0.66 0.33 1.32 0.66 2 1 C1.34 1.66 0.68 2.32 0 3 C-0.46162427 5.43252661 -0.46162427 5.43252661 -0.625 8.125 C-0.69976562 9.03507812 -0.77453125 9.94515625 -0.8515625 10.8828125 C-0.90054688 11.58148438 -0.94953125 12.28015625 -1 13 C-0.01 13 0.98 13 2 13 C2 15.97 2 18.94 2 22 C1.67 22 1.34 22 1 22 C1 19.36 1 16.72 1 14 C-0.32 13.67 -1.64 13.34 -3 13 C-3.08086147 11.20906809 -3.13912702 9.41710372 -3.1875 7.625 C-3.22230469 6.62726563 -3.25710937 5.62953125 -3.29296875 4.6015625 C-3.14794922 3.31378906 -3.14794922 3.31378906 -3 2 C-2.01 1.34 -1.02 0.68 0 0 Z " fill="#6F5251" transform="translate(84,76)"/>
<path d="M0 0 C4.29 0 8.58 0 13 0 C13 0.99 13 1.98 13 3 C8.71 3 4.42 3 0 3 C0 2.01 0 1.02 0 0 Z " fill="#FAE1C1" transform="translate(97,140)"/>
<path d="M0 0 C1.98 0.495 1.98 0.495 4 1 C3.67 2.65 3.34 4.3 3 6 C1.68 5.67 0.36 5.34 -1 5 C-0.67 3.35 -0.34 1.7 0 0 Z " fill="#D57D22" transform="translate(131,63)"/>
<path d="M0 0 C0.99 0 1.98 0 3 0 C2.67 1.65 2.34 3.3 2 5 C0.68 4.67 -0.64 4.34 -2 4 C-1.34 2.68 -0.68 1.36 0 0 Z " fill="#E4EFEE" transform="translate(460,138)"/>
<path d="M0 0 C0.99 0 1.98 0 3 0 C2.67 1.65 2.34 3.3 2 5 C0.68 4.67 -0.64 4.34 -2 4 C-1.34 2.68 -0.68 1.36 0 0 Z " fill="#E4EFEE" transform="translate(442,138)"/>
<path d="M0 0 C1.32 0.66 2.64 1.32 4 2 C4 2.66 4 3.32 4 4 C2.35 4.33 0.7 4.66 -1 5 C-0.67 3.35 -0.34 1.7 0 0 Z " fill="#E6EDEB" transform="translate(259,138)"/>
<path d="M0 0 C0.99 0 1.98 0 3 0 C3 1.98 3 3.96 3 6 C2.01 6 1.02 6 0 6 C0 4.02 0 2.04 0 0 Z " fill="#265D66" transform="translate(201,129)"/>
<path d="M0 0 C0.99 0 1.98 0 3 0 C3 1.98 3 3.96 3 6 C2.01 6 1.02 6 0 6 C0 4.02 0 2.04 0 0 Z " fill="#265E67" transform="translate(75,129)"/>
</svg>
